<svg width="379" height="317" viewBox="0 0 379 317" fill="none" xmlns="http://www.w3.org/2000/svg">
<g filter="url(#filter0_f_90_4886)">
<ellipse cx="189.324" cy="176.5" rx="91.5" ry="42.5" fill="white" fill-opacity="0.28"/>
</g>
<path d="M123.44 92.5164V92.5234V92.6292V137.959V137.96C123.448 145.746 125.414 153.404 129.157 160.231C132.9 167.059 138.299 172.835 144.858 177.029L147.475 178.703L146.326 175.817C142.595 166.444 140.55 156.219 140.55 145.514V145.513C140.54 132.337 143.705 119.352 149.778 107.659C155.85 95.9658 164.652 85.9081 175.436 78.3378L178.026 76.5193H174.861H139.55C135.296 76.5192 131.216 78.201 128.198 81.1978C125.18 84.1947 123.469 88.2634 123.44 92.5164ZM114.244 78.0221L115.118 76.5193H113.379H79.1099C74.8373 76.5193 70.7397 78.2166 67.7185 81.2378C64.6973 84.259 63 88.3566 63 92.6292L63 130.404C63 130.404 63 130.404 63 130.404C62.9979 136.752 64.5545 143.004 67.5331 148.61C70.5118 154.216 74.8213 159.005 80.0833 162.556C85.3452 166.108 91.3987 168.313 97.712 168.978C104.025 169.643 110.405 168.748 116.292 166.371L117.305 165.962L116.808 164.989C112.531 156.617 110.311 147.347 110.33 137.946V137.944V92.6292C110.33 87.2939 111.747 82.3145 114.244 78.0221ZM221.947 135.538L222.654 136.246L223.361 135.538L240.677 118.207C240.677 118.207 240.677 118.207 240.677 118.207C241.908 116.976 243.578 116.285 245.319 116.285C247.06 116.285 248.73 116.976 249.961 118.207C251.192 119.438 251.883 121.108 251.883 122.849C251.883 124.59 251.192 126.259 249.961 127.49C249.961 127.491 249.961 127.491 249.961 127.491L232.63 144.806L231.922 145.514L232.63 146.221L249.961 163.537C249.961 163.537 249.961 163.537 249.961 163.537C251.192 164.768 251.883 166.438 251.883 168.179C251.883 169.92 251.192 171.589 249.961 172.82C248.73 174.052 247.06 174.743 245.319 174.743C243.578 174.743 241.908 174.052 240.677 172.821C240.677 172.821 240.677 172.821 240.677 172.82L223.361 155.49L222.654 154.782L221.947 155.49L204.631 172.82C204.631 172.821 204.631 172.821 204.631 172.821C203.4 174.052 201.73 174.743 199.989 174.743C198.248 174.743 196.578 174.052 195.347 172.82C194.116 171.589 193.425 169.92 193.425 168.179C193.425 166.438 194.116 164.768 195.347 163.537C195.347 163.537 195.347 163.537 195.347 163.537L212.678 146.221L213.386 145.514L212.678 144.806L195.347 127.491C195.347 127.491 195.347 127.491 195.347 127.49C194.116 126.259 193.425 124.59 193.425 122.849C193.425 121.108 194.116 119.438 195.347 118.207C196.578 116.976 198.248 116.285 199.989 116.285C201.73 116.285 203.4 116.976 204.631 118.207C204.631 118.207 204.631 118.207 204.631 118.207L221.947 135.538ZM169.769 1C165.673 1 161.618 1.80674 157.834 3.37416C154.049 4.94159 150.611 7.239 147.715 10.1352C144.819 13.0314 142.521 16.4698 140.954 20.2538C139.386 24.0379 138.58 28.0937 138.58 32.1896C138.58 36.2855 139.386 40.3412 140.954 44.1253C142.521 47.9094 144.819 51.3477 147.715 54.2439C150.611 57.1402 154.049 59.4376 157.834 61.005C161.618 62.5724 165.673 63.3792 169.769 63.3792C178.041 63.3792 185.974 60.0931 191.824 54.2439C197.673 48.3948 200.959 40.4616 200.959 32.1896C200.959 23.9176 197.673 15.9844 191.824 10.1352C185.974 4.28603 178.041 1 169.769 1ZM237.764 16.0797C231.488 16.0797 225.468 18.5729 221.03 23.011C216.592 27.449 214.099 33.4682 214.099 39.7445C214.099 46.0208 216.592 52.0401 221.03 56.4781C225.468 60.9161 231.488 63.4094 237.764 63.4094C244.04 63.4094 250.059 60.9161 254.497 56.4781C258.935 52.0401 261.429 46.0208 261.429 39.7445C261.429 33.4682 258.935 27.449 254.497 23.011C250.059 18.5729 244.04 16.0797 237.764 16.0797ZM101.775 16.0797C95.4984 16.0797 89.4792 18.5729 85.0412 23.011C80.6032 27.449 78.1099 33.4682 78.1099 39.7445C78.1099 46.0208 80.6032 52.0401 85.0412 56.4781C89.4792 60.9161 95.4985 63.4094 101.775 63.4094C108.051 63.4094 114.07 60.9161 118.508 56.4781C122.946 52.0401 125.44 46.0208 125.44 39.7445C125.44 33.4682 122.946 27.449 118.508 23.011C114.07 18.5729 108.051 16.0797 101.775 16.0797ZM271.44 194.3C284.379 181.361 291.649 163.812 291.649 145.514C291.649 127.215 284.379 109.666 271.44 96.7273C258.501 83.7883 240.952 76.5193 222.654 76.5193C204.355 76.5193 186.806 83.7883 173.867 96.7273C160.928 109.666 153.659 127.215 153.659 145.514C153.659 163.812 160.928 181.361 173.867 194.3C186.806 207.239 204.355 214.508 222.654 214.508C240.952 214.508 258.501 207.239 271.44 194.3Z" fill="url(#paint0_linear_90_4886)" fill-opacity="0.4" stroke="url(#paint1_linear_90_4886)" stroke-width="2"/>
<defs>
<filter id="filter0_f_90_4886" x="0.124222" y="36.3" width="378.4" height="280.4" filterUnits="userSpaceOnUse" color-interpolation-filters="sRGB">
<feFlood flood-opacity="0" result="BackgroundImageFix"/>
<feBlend mode="normal" in="SourceGraphic" in2="BackgroundImageFix" result="shape"/>
<feGaussianBlur stdDeviation="48.85" result="effect1_foregroundBlur_90_4886"/>
</filter>
<linearGradient id="paint0_linear_90_4886" x1="176.813" y1="193.074" x2="176.813" y2="7.36975" gradientUnits="userSpaceOnUse">
<stop stop-color="white"/>
<stop offset="1" stop-color="white" stop-opacity="0.51"/>
</linearGradient>
<linearGradient id="paint1_linear_90_4886" x1="158.911" y1="202.918" x2="157.345" y2="40.9261" gradientUnits="userSpaceOnUse">
<stop stop-color="white"/>
<stop offset="1" stop-color="white" stop-opacity="0"/>
</linearGradient>
</defs>
</svg>
