<svg width="348" height="354" viewBox="0 0 348 354" fill="none" xmlns="http://www.w3.org/2000/svg">
<g filter="url(#filter0_f_90_4885)">
<ellipse cx="174.281" cy="207.5" rx="79" ry="51.5" fill="white" fill-opacity="0.25"/>
</g>
<path d="M150.625 209.792H151.625V208.792V31.5417V30.5417H150.625H91.5417C83.4415 30.5417 75.6731 33.7594 69.9454 39.4871C64.2178 45.2148 61 52.9832 61 61.0833V179.25C61 187.35 64.2178 195.119 69.9454 200.846C75.6731 206.574 83.4415 209.792 91.5417 209.792H150.625ZM178.711 3.45603C177.138 1.88346 175.005 1 172.781 1C170.557 1 168.424 1.88346 166.852 3.45603C165.279 5.0286 164.396 7.16147 164.396 9.38542V230.948C164.396 233.172 165.279 235.305 166.852 236.877C168.424 238.45 170.557 239.333 172.781 239.333C175.005 239.333 177.138 238.45 178.711 236.877C180.283 235.305 181.167 233.172 181.167 230.948V9.38542C181.167 7.16147 180.283 5.0286 178.711 3.45603ZM254.021 47.3125C257.673 47.3125 261.176 48.7634 263.758 51.3459C266.341 53.9284 267.792 57.4311 267.792 61.0833V68.4688C267.792 70.6927 268.675 72.8256 270.248 74.3981C271.82 75.9707 273.953 76.8542 276.177 76.8542C278.401 76.8542 280.534 75.9707 282.106 74.3981C283.679 72.8256 284.562 70.6927 284.562 68.4688V61.0833C284.562 52.9832 281.345 45.2148 275.617 39.4871C269.889 33.7594 262.121 30.5417 254.021 30.5417H246.635C244.411 30.5417 242.279 31.4251 240.706 32.9977C239.133 34.5703 238.25 36.7031 238.25 38.9271C238.25 41.151 239.133 43.2839 240.706 44.8565C242.279 46.429 244.411 47.3125 246.635 47.3125H254.021ZM263.758 188.987C261.176 191.57 257.673 193.021 254.021 193.021H246.635C244.411 193.021 242.279 193.904 240.706 195.477C239.133 197.049 238.25 199.182 238.25 201.406C238.25 203.63 239.133 205.763 240.706 207.336C242.279 208.908 244.411 209.792 246.635 209.792H254.021C262.121 209.792 269.889 206.574 275.617 200.846C281.345 195.119 284.562 187.35 284.562 179.25V171.865C284.562 169.641 283.679 167.508 282.106 165.935C280.534 164.363 278.401 163.479 276.177 163.479C273.953 163.479 271.82 164.363 270.248 165.935C268.675 167.508 267.792 169.641 267.792 171.865V179.25C267.792 182.902 266.341 186.405 263.758 188.987ZM276.177 89.625C273.953 89.625 271.82 90.5085 270.248 92.081C268.675 93.6536 267.792 95.7865 267.792 98.0104V142.323C267.792 144.547 268.675 146.68 270.248 148.252C271.82 149.825 273.953 150.708 276.177 150.708C278.401 150.708 280.534 149.825 282.106 148.252C283.679 146.68 284.562 144.547 284.562 142.323V98.0104C284.562 95.7865 283.679 93.6536 282.106 92.081C280.534 90.5085 278.401 89.625 276.177 89.625ZM223.023 32.9977C221.451 31.4251 219.318 30.5417 217.094 30.5417H202.323C200.099 30.5417 197.966 31.4251 196.394 32.9977C194.821 34.5703 193.938 36.7031 193.938 38.9271C193.938 41.151 194.821 43.2839 196.394 44.8565C197.966 46.429 200.099 47.3125 202.323 47.3125H217.094C219.318 47.3125 221.451 46.429 223.023 44.8565C224.596 43.2839 225.479 41.151 225.479 38.9271C225.479 36.7031 224.596 34.5703 223.023 32.9977ZM225.479 201.406C225.479 199.182 224.596 197.049 223.023 195.477C221.451 193.904 219.318 193.021 217.094 193.021H202.323C200.099 193.021 197.966 193.904 196.394 195.477C194.821 197.049 193.938 199.182 193.938 201.406C193.938 203.63 194.821 205.763 196.394 207.336C197.966 208.908 200.099 209.792 202.323 209.792H217.094C219.318 209.792 221.451 208.908 223.023 207.336C224.596 205.763 225.479 203.63 225.479 201.406Z" fill="url(#paint0_linear_90_4885)" fill-opacity="0.4" stroke="url(#paint1_linear_90_4885)" stroke-width="2"/>
<defs>
<filter id="filter0_f_90_4885" x="0.981247" y="61.7" width="346.6" height="291.6" filterUnits="userSpaceOnUse" color-interpolation-filters="sRGB">
<feFlood flood-opacity="0" result="BackgroundImageFix"/>
<feBlend mode="normal" in="SourceGraphic" in2="BackgroundImageFix" result="shape"/>
<feGaussianBlur stdDeviation="47.15" result="effect1_foregroundBlur_90_4885"/>
</filter>
<linearGradient id="paint0_linear_90_4885" x1="172.281" y1="215.5" x2="172.281" y2="8" gradientUnits="userSpaceOnUse">
<stop stop-color="white"/>
<stop offset="1" stop-color="white" stop-opacity="0.51"/>
</linearGradient>
<linearGradient id="paint1_linear_90_4885" x1="154.781" y1="226.5" x2="152.781" y2="45.5" gradientUnits="userSpaceOnUse">
<stop stop-color="white"/>
<stop offset="1" stop-color="white" stop-opacity="0"/>
</linearGradient>
</defs>
</svg>
