<svg width="1066" height="1017" viewBox="0 0 1066 1017" fill="none" xmlns="http://www.w3.org/2000/svg">
<g opacity="0.6" filter="url(#filter0_f_52_2759)">
<rect x="508.985" y="370.287" width="195.65" height="195.65" transform="rotate(45 508.985 370.287)" fill="white"/>
</g>
<mask id="mask0_52_2759" style="mask-type:alpha" maskUnits="userSpaceOnUse" x="129" y="182" width="937" height="640">
<rect x="129" y="182" width="936.231" height="639.781" fill="url(#paint0_linear_52_2759)"/>
</mask>
<g mask="url(#mask0_52_2759)">
<path fill-rule="evenodd" clip-rule="evenodd" d="M295.865 503.953C295.865 471.051 322.535 444.381 355.436 444.381C388.337 444.381 415.008 471.051 415.008 503.953C415.008 536.854 388.337 563.524 355.436 563.524C322.535 563.524 295.865 536.854 295.865 503.953ZM373.308 486.081L351.308 490.483C349.003 490.945 346.886 492.079 345.224 493.741C343.562 495.403 342.429 497.52 341.967 499.824L337.565 521.824L359.564 517.422C361.87 516.961 363.988 515.828 365.651 514.166C367.315 512.504 368.449 510.386 368.911 508.081L373.308 486.081Z" fill="white"/>
<rect x="355.857" y="709.515" width="290.709" height="290.709" rx="40.5087" transform="rotate(-135 355.857 709.515)" fill="white" fill-opacity="0.15" stroke="white" stroke-width="4.76573"/>
<rect x="598.488" y="952.147" width="290.709" height="290.709" rx="40.5087" transform="rotate(-135 598.488 952.147)" fill="white" fill-opacity="0.15" stroke="white" stroke-width="4.76573"/>
<rect x="598.488" y="466.884" width="290.709" height="290.709" rx="40.5087" transform="rotate(-135 598.488 466.884)" fill="white" fill-opacity="0.15" stroke="white" stroke-width="4.76573"/>
<rect x="841.119" y="709.515" width="290.709" height="290.709" rx="40.5087" transform="rotate(-135 841.119 709.515)" fill="white" fill-opacity="0.15" stroke="white" stroke-width="4.76573"/>
<path fill-rule="evenodd" clip-rule="evenodd" d="M601.782 242.2C600.253 240.671 599.395 238.597 599.395 236.434C599.395 234.271 600.253 232.197 601.782 230.668L626.249 206.201C627.001 205.422 627.901 204.801 628.896 204.374C629.891 203.946 630.961 203.721 632.044 203.712C633.127 203.703 634.201 203.909 635.203 204.319C636.206 204.729 637.116 205.335 637.882 206.1C638.648 206.866 639.253 207.777 639.663 208.779C640.073 209.781 640.28 210.855 640.27 211.938C640.261 213.021 640.036 214.091 639.609 215.086C639.181 216.081 638.56 216.981 637.781 217.733L613.314 242.2C611.785 243.729 609.711 244.588 607.548 244.588C605.386 244.588 603.312 243.729 601.782 242.2Z" fill="white"/>
<path fill-rule="evenodd" clip-rule="evenodd" d="M662.25 242.2C660.721 243.729 658.647 244.588 656.484 244.588C654.321 244.588 652.247 243.729 650.718 242.2L626.251 217.733C624.766 216.195 623.944 214.135 623.962 211.996C623.981 209.858 624.839 207.813 626.351 206.301C627.863 204.788 629.908 203.931 632.047 203.912C634.185 203.894 636.245 204.716 637.783 206.201L662.25 230.668C663.779 232.197 664.638 234.271 664.638 236.434C664.638 238.596 663.779 240.67 662.25 242.2Z" fill="white"/>
<path fill-rule="evenodd" clip-rule="evenodd" d="M632.018 220.123C634.181 220.123 636.255 220.982 637.785 222.512C639.314 224.041 640.173 226.116 640.173 228.279V293.523C640.173 295.686 639.314 297.76 637.785 299.29C636.255 300.819 634.181 301.679 632.018 301.679C629.855 301.679 627.781 300.819 626.251 299.29C624.722 297.76 623.862 295.686 623.862 293.523V228.279C623.862 226.116 624.722 224.041 626.251 222.512C627.781 220.982 629.855 220.123 632.018 220.123ZM597.006 279.602C598.535 281.131 599.394 283.205 599.394 285.367C599.394 287.53 598.535 289.604 597.006 291.133L572.54 315.6C571.002 317.086 568.941 317.908 566.803 317.889C564.665 317.871 562.619 317.013 561.107 315.501C559.595 313.989 558.737 311.943 558.719 309.805C558.7 307.666 559.522 305.606 561.008 304.068L585.474 279.602C587.004 278.073 589.078 277.214 591.24 277.214C593.403 277.214 595.477 278.073 597.006 279.602Z" fill="white"/>
<path fill-rule="evenodd" clip-rule="evenodd" d="M536.539 279.601C538.068 278.072 540.142 277.213 542.305 277.213C544.467 277.213 546.541 278.072 548.071 279.601L572.537 304.067C573.316 304.82 573.937 305.72 574.365 306.715C574.792 307.71 575.017 308.78 575.027 309.863C575.036 310.946 574.83 312.02 574.42 313.022C574.01 314.024 573.404 314.935 572.638 315.7C571.872 316.466 570.962 317.072 569.96 317.482C568.957 317.892 567.883 318.098 566.8 318.089C565.718 318.079 564.647 317.854 563.652 317.427C562.657 317 561.758 316.378 561.005 315.599L536.539 291.133C535.01 289.603 534.151 287.529 534.151 285.367C534.151 283.204 535.01 281.13 536.539 279.601Z" fill="white"/>
<path fill-rule="evenodd" clip-rule="evenodd" d="M566.774 301.679C564.611 301.679 562.537 300.819 561.007 299.29C559.478 297.76 558.619 295.686 558.619 293.523V228.279C558.619 226.116 559.478 224.041 561.007 222.512C562.537 220.983 564.611 220.123 566.774 220.123C568.937 220.123 571.011 220.983 572.541 222.512C574.07 224.041 574.93 226.116 574.93 228.279V293.523C574.93 295.686 574.07 297.76 572.541 299.29C571.011 300.819 568.937 301.679 566.774 301.679Z" fill="white"/>
<path d="M541.3 779.571L579.425 741.445L604.843 766.862L655.677 716.028" stroke="white" stroke-width="15.8858" stroke-linecap="round" stroke-linejoin="round"/>
<path d="M630.26 716.028H655.677V741.445" stroke="white" stroke-width="15.8858" stroke-linecap="round" stroke-linejoin="round"/>
<path d="M883.997 461.502C874.907 452.402 863.065 446.559 850.313 444.88C837.56 443.202 824.61 445.782 813.474 452.22M796.018 467.749H796.077M786.035 488.883C783.847 497.798 783.791 507.103 785.873 516.044C787.955 524.984 792.117 533.308 798.019 540.338C803.921 547.369 811.398 552.909 819.843 556.508C828.288 560.107 837.462 561.664 846.621 561.053C855.781 560.441 864.667 557.678 872.558 552.988C880.449 548.298 887.124 541.814 892.039 534.061C896.954 526.308 899.971 517.505 900.846 508.367C901.721 499.229 900.429 490.013 897.075 481.468" stroke="white" stroke-width="11.676" stroke-linecap="round" stroke-linejoin="round"/>
<path d="M867.476 478.024C864.116 474.645 860.102 471.986 855.68 470.212C851.257 468.437 846.519 467.584 841.755 467.704C836.992 467.823 832.303 468.914 827.975 470.908C823.647 472.902 819.772 475.759 816.586 479.303C813.4 482.846 810.971 487.003 809.447 491.518C807.923 496.033 807.336 500.811 807.722 505.56C808.109 510.31 809.46 514.931 811.694 519.14C813.928 523.349 816.997 527.058 820.713 530.041M842.722 537.805H842.781M877.692 500.792C878.01 506.346 877 511.896 874.746 516.982C872.492 522.069 869.059 526.545 864.732 530.041" stroke="white" stroke-width="11.676" stroke-linecap="round" stroke-linejoin="round"/>
<path d="M842.723 514.453C849.172 514.453 854.399 509.225 854.399 502.777C854.399 496.328 849.172 491.101 842.723 491.101C836.275 491.101 831.047 496.328 831.047 502.777C831.047 509.225 836.275 514.453 842.723 514.453Z" stroke="white" stroke-width="11.676" stroke-linecap="round" stroke-linejoin="round"/>
<path d="M850.953 494.545L883.997 461.502" stroke="white" stroke-width="11.676" stroke-linecap="round" stroke-linejoin="round"/>
</g>
<defs>
<filter id="filter0_f_52_2759" x="0.76767" y="0.415619" width="1016.43" height="1016.43" filterUnits="userSpaceOnUse" color-interpolation-filters="sRGB">
<feFlood flood-opacity="0" result="BackgroundImageFix"/>
<feBlend mode="normal" in="SourceGraphic" in2="BackgroundImageFix" result="shape"/>
<feGaussianBlur stdDeviation="184.936" result="effect1_foregroundBlur_52_2759"/>
</filter>
<linearGradient id="paint0_linear_52_2759" x1="597.116" y1="182" x2="597.116" y2="821.781" gradientUnits="userSpaceOnUse">
<stop offset="0.131143" stop-color="#292929" stop-opacity="0"/>
<stop offset="0.316607" stop-color="#292929"/>
<stop offset="0.644297" stop-color="#292929"/>
<stop offset="0.883246" stop-color="#292929" stop-opacity="0"/>
</linearGradient>
</defs>
</svg>
