<svg width="335" height="331" viewBox="0 0 335 331" fill="none" xmlns="http://www.w3.org/2000/svg">
<g filter="url(#filter0_f_90_4887)">
<ellipse cx="167.4" cy="176.5" rx="73" ry="59.5" fill="white" fill-opacity="0.21"/>
</g>
<path d="M167.556 215.97L167.8 216.031L168.044 215.97C192.852 209.732 213.32 195.499 229.432 173.326C245.539 151.159 253.6 126.527 253.6 99.46V34.8V34.107L252.951 33.8637L168.151 2.06367L167.8 1.932L167.449 2.06367L82.6489 33.8637L82 34.107V34.8V99.4597C82 99.4598 82 99.4599 82 99.46C81.9929 126.52 90.054 151.148 106.168 173.315C122.287 195.488 142.755 209.725 167.556 215.97ZM146.6 150.4H146.598C143.855 150.406 141.599 149.489 139.76 147.651C137.921 145.812 137 143.551 137 140.8L137 109.002C137 109.002 137 109.001 137 109.001C137.007 106.256 137.928 103.998 139.761 102.159C141.592 100.321 143.849 99.4 146.6 99.4H147.6V98.4V87.8012C147.607 82.2452 149.578 77.5091 153.541 73.5393C157.503 69.5705 162.238 67.6 167.8 67.6C173.37 67.607 178.109 69.5783 182.071 73.5399C186.033 77.5018 188 82.2371 188 87.8V98.4V99.3976L188.998 99.4C191.743 99.4065 194.002 100.328 195.841 102.161C197.679 103.992 198.6 106.249 198.6 109L198.6 140.8L198.6 140.802C198.606 143.545 197.689 145.801 195.851 147.64C194.012 149.479 191.751 150.4 189 150.4H146.6ZM156.2 98.4V99.4H157.2H178.4H179.4V98.4V87.8024C179.408 84.5522 178.297 81.7775 176.065 79.5457C173.833 77.3141 171.056 76.2 167.8 76.2L167.798 76.2C164.55 76.2077 161.778 77.3214 159.547 79.5445C157.314 81.7695 156.2 84.5443 156.2 87.8V98.4Z" fill="url(#paint0_linear_90_4887)" fill-opacity="0.4" stroke="url(#paint1_linear_90_4887)" stroke-width="2"/>
<defs>
<filter id="filter0_f_90_4887" x="0.100021" y="22.7" width="334.6" height="307.6" filterUnits="userSpaceOnUse" color-interpolation-filters="sRGB">
<feFlood flood-opacity="0" result="BackgroundImageFix"/>
<feBlend mode="normal" in="SourceGraphic" in2="BackgroundImageFix" result="shape"/>
<feGaussianBlur stdDeviation="47.15" result="effect1_foregroundBlur_90_4887"/>
</filter>
<linearGradient id="paint0_linear_90_4887" x1="167.417" y1="194.518" x2="167.417" y2="8.38223" gradientUnits="userSpaceOnUse">
<stop stop-color="white"/>
<stop offset="1" stop-color="white" stop-opacity="0.51"/>
</linearGradient>
<linearGradient id="paint1_linear_90_4887" x1="154.021" y1="204.385" x2="151.919" y2="42.0286" gradientUnits="userSpaceOnUse">
<stop stop-color="white"/>
<stop offset="1" stop-color="white" stop-opacity="0"/>
</linearGradient>
</defs>
</svg>
